<?xml version="1.0" standalone="no"?>
<!DOCTYPE svg PUBLIC "-//W3C//DTD SVG 20010904//EN"
 "http://www.w3.org/TR/2001/REC-SVG-20010904/DTD/svg10.dtd">
<svg version="1.0" xmlns="http://www.w3.org/2000/svg"
 width="1920.000000pt" height="1080.000000pt" viewBox="0 0 1920.000000 1080.000000"
 preserveAspectRatio="xMidYMid meet">

<g transform="translate(0.000000,1080.000000) scale(0.100000,-0.100000)"
fill="#000000" stroke="none">
<path d="M8345 8069 c-811 -78 -1528 -557 -1900 -1272 -117 -224 -192 -449
-237 -712 -29 -174 -31 -521 -4 -695 77 -495 292 -929 636 -1284 387 -399 867
-640 1430 -717 123 -17 487 -17 610 0 423 58 817 216 1138 458 41 30 79 53 85
50 7 -2 646 -453 1421 -1001 l1408 -996 28 38 c15 20 26 40 23 44 -2 4 -632
451 -1401 994 -768 543 -1399 989 -1401 991 -2 1 52 60 120 130 352 363 567
792 645 1293 27 174 25 521 -4 695 -72 421 -237 789 -497 1110 -101 125 -288
304 -420 402 -483 360 -1083 529 -1680 472z m445 -100 c527 -48 1012 -271
1391 -636 197 -191 337 -382 458 -624 385 -773 281 -1705 -266 -2384 -361
-448 -877 -741 -1463 -832 -160 -24 -510 -24 -670 0 -495 77 -921 286 -1272
625 -196 189 -337 381 -457 623 -385 773 -281 1705 266 2384 481 597 1241 916
2013 844z"/>
</g>
</svg>
